<svg xmlns="http://www.w3.org/2000/svg" viewBox="0 0 128 128" fill="none">
  <defs>
    <linearGradient id="bg" x1="20" y1="12" x2="108" y2="116" gradientUnits="userSpaceOnUse">
      <stop stop-color="#4F6DF5"/>
      <stop offset="1" stop-color="#6B84FF"/>
    </linearGradient>
    <filter id="shadow" x="-20%" y="-20%" width="140%" height="140%">
      <feDropShadow dx="0" dy="2" stdDeviation="3" flood-color="#1A2A6B" flood-opacity="0.28"/>
    </filter>
  </defs>
  <rect width="128" height="128" rx="28" fill="url(#bg)"/>
  <g filter="url(#shadow)">
    <rect x="24" y="34" width="52" height="40" rx="8" fill="#FFFFFF" opacity="0.92"/>
    <rect x="24" y="34" width="52" height="10" rx="8" fill="#34A853"/>
    <rect x="30" y="50" width="18" height="4" rx="2" fill="#DADCE0"/>
    <rect x="30" y="58" width="34" height="4" rx="2" fill="#E8EAED"/>
    <rect x="30" y="66" width="26" height="4" rx="2" fill="#E8EAED"/>
  </g>
  <g filter="url(#shadow)">
    <rect x="52" y="48" width="52" height="40" rx="8" fill="#FFFFFF"/>
    <rect x="52" y="48" width="52" height="10" rx="8" fill="#FBBC04"/>
    <rect x="58" y="64" width="18" height="4" rx="2" fill="#DADCE0"/>
    <rect x="58" y="72" width="34" height="4" rx="2" fill="#E8EAED"/>
    <rect x="58" y="80" width="28" height="4" rx="2" fill="#E8EAED"/>
  </g>
  <g filter="url(#shadow)">
    <rect x="38" y="62" width="58" height="44" rx="9" fill="#FFFFFF"/>
    <rect x="38" y="62" width="58" height="11" rx="9" fill="#1A73E8"/>
    <circle cx="46" cy="67.5" r="1.6" fill="#FFFFFF" opacity="0.9"/>
    <circle cx="51" cy="67.5" r="1.6" fill="#FFFFFF" opacity="0.9"/>
    <circle cx="56" cy="67.5" r="1.6" fill="#FFFFFF" opacity="0.9"/>
    <rect x="46" y="80" width="22" height="4" rx="2" fill="#DADCE0"/>
    <rect x="46" y="88" width="38" height="4" rx="2" fill="#E8EAED"/>
    <rect x="46" y="96" width="30" height="4" rx="2" fill="#E8EAED"/>
  </g>
  <path d="M64 24L66.2 29.8L72 32L66.2 34.2L64 40L61.8 34.2L56 32L61.8 29.8L64 24Z" fill="#FFFFFF"/>
  <circle cx="88" cy="30" r="2" fill="#FFFFFF" opacity="0.85"/>
  <circle cx="94" cy="38" r="1.5" fill="#FFFFFF" opacity="0.7"/>
  <circle cx="34" cy="28" r="1.5" fill="#FFFFFF" opacity="0.7"/>
  <path d="M82 24C90 24 96 28 98 34" stroke="#FFFFFF" stroke-width="1.5" stroke-linecap="round" stroke-dasharray="2 3" opacity="0.55"/>
</svg>
